<?xml version="1.0" encoding="UTF-8" standalone="no"?>
<svg
   xmlns:dc="http://purl.org/dc/elements/1.1/"
   xmlns:cc="http://creativecommons.org/ns#"
   xmlns:rdf="http://www.w3.org/1999/02/22-rdf-syntax-ns#"
   xmlns:svg="http://www.w3.org/2000/svg"
   xmlns="http://www.w3.org/2000/svg"
   width="100%"
   height="100%"
   viewBox="0 0 64 64"
   version="1.1"
   xml:space="preserve"
   style="fill-rule:evenodd;clip-rule:evenodd;stroke-linecap:round;stroke-linejoin:round;stroke-miterlimit:2;"
   id="svg11">
  <metadata
   id="metadata17">
    <rdf:RDF>
      <cc:Work
   rdf:about="">
        <dc:format>image/svg+xml</dc:format>

        <dc:type
   rdf:resource="http://purl.org/dc/dcmitype/StillImage" />

      </cc:Work>

    </rdf:RDF>

  </metadata>

  <defs
   id="defs15" />

  
  <path
   d="M40.822,36.166c0.902,0.281 1.551,1.07 1.652,2.01c0.175,1.638 0.453,4.237 0.652,6.094c0.068,0.63 -0.12,1.261 -0.521,1.752c-0.401,0.49 -0.982,0.8 -1.613,0.859c-0.588,0.049 -1.182,0.078 -1.783,0.078c-10.263,0 -18.595,-8.332 -18.595,-18.595c0,-3.225 0.822,-6.26 2.269,-8.905c0.772,-1.35 2.192,-2.2 3.747,-2.24c1.498,-0.094 3.415,-0.143 4.756,-0.177c0.42,-0.011 0.826,0.153 1.121,0.453c0.296,0.3 0.453,0.709 0.436,1.129c-0.109,2.617 -0.321,7.687 -0.409,9.806c-0.025,0.59 -0.389,1.112 -0.934,1.339c-1.258,0.524 -3.401,1.417 -3.401,1.417c0.619,2.417 2.013,4.525 3.902,6.042l2.523,-2.99c0,0 3.964,1.233 6.198,1.928Z"
   style="fill:none;stroke:#ffffff;stroke-width:2px;"
   id="path3" />

  <path
   d="M25,26c0,0 0.328,-1.639 0.608,-3.04c0.228,-1.14 1.229,-1.96 2.391,-1.96c0.001,0 0.001,0 0.001,0"
   style="fill:none;stroke:#ffffff;stroke-width:2px;"
   id="path5" />

  <path
   d="M40,8.31c9.88,3.339 17,12.689 17,23.69c0,13.798 -11.202,25 -25,25l5,-5"
   style="fill:none;stroke:#ffffff;stroke-width:2px;"
   id="path7" />

  <path
   d="M24,55.69c-9.88,-3.339 -17,-12.689 -17,-23.69c0,-13.798 11.202,-25 25,-25l-5,5"
   style="fill:none;stroke:#ffffff;stroke-width:2px;"
   id="path9" />

</svg>
